<svg xmlns="http://www.w3.org/2000/svg" xmlns:xlink="http://www.w3.org/1999/xlink" width="168" height="168" viewBox="0 0 168 168">
  <defs>
    <polygon id="spotify_icon_rgb_black-a" points="0 167.94 167.487 167.94 167.487 .513 0 .513"/>
  </defs>
  <g fill="none" fill-rule="evenodd">
    <mask id="spotify_icon_rgb_black-b" fill="#fff">
      <use xlink:href="#spotify_icon_rgb_black-a"/>
    </mask>
    <path fill="#fff" d="M133.28,74.753 C106.286,58.722 61.76,57.248 35.991,65.069 C31.852,66.325 27.476,63.988 26.223,59.851 C24.968,55.71 27.302,51.337 31.443,50.079 C61.025,41.1 110.199,42.834 141.275,61.281 C144.998,63.491 146.218,68.298 144.012,72.014 C141.804,75.736 136.993,76.963 133.28,74.753 Z M132.396,98.497 C130.502,101.57 126.484,102.534 123.415,100.647 C100.911,86.813 66.593,82.806 39.968,90.888 C36.516,91.931 32.869,89.985 31.82,86.538 C30.78,83.086 32.727,79.445 36.174,78.396 C66.589,69.166 104.4,73.636 130.248,89.521 C133.317,91.411 134.283,95.431 132.396,98.497 Z M122.149,121.3 C120.644,123.768 117.431,124.541 114.972,123.037 C95.307,111.018 70.555,108.304 41.405,114.962 C38.596,115.606 35.796,113.846 35.156,111.038 C34.512,108.229 36.266,105.429 39.081,104.788 C70.981,97.496 98.344,100.634 120.417,114.122 C122.878,115.625 123.653,118.84 122.149,121.3 Z M83.743,0.513 C37.494,0.513 0,38.006 0,84.255 C0,130.509 37.494,168 83.743,168 C129.994,168 167.487,130.509 167.487,84.255 C167.487,38.006 129.994,0.513 83.743,0.513 L83.743,0.513 Z" mask="url(#spotify_icon_rgb_black-b)"/>
  </g>
</svg>
